<svg width="39" height="39" viewBox="0 0 39 39" fill="none" xmlns="http://www.w3.org/2000/svg">
<path fill-rule="evenodd" clip-rule="evenodd" d="M3.25 19.5C3.25 10.5251 10.5251 3.25 19.5 3.25C28.4749 3.25 35.75 10.5251 35.75 19.5C35.75 28.4749 28.4749 35.75 19.5 35.75C10.5251 35.75 3.25 28.4749 3.25 19.5ZM17.0625 13C17.0625 12.3535 17.3193 11.7335 17.7764 11.2764C18.2335 10.8193 18.8535 10.5625 19.5 10.5625H19.5163C20.1627 10.5625 20.7827 10.8193 21.2398 11.2764C21.6969 11.7335 21.9538 12.3535 21.9538 13V13.0163C21.9538 13.6627 21.6969 14.2827 21.2398 14.7398C20.7827 15.1969 20.1627 15.4538 19.5163 15.4538H19.5C18.8535 15.4538 18.2335 15.1969 17.7764 14.7398C17.3193 14.2827 17.0625 13.6627 17.0625 13.0163V13ZM19.5 17.875C19.931 17.875 20.3443 18.0462 20.649 18.351C20.9538 18.6557 21.125 19.069 21.125 19.5V26C21.125 26.431 20.9538 26.8443 20.649 27.149C20.3443 27.4538 19.931 27.625 19.5 27.625C19.069 27.625 18.6557 27.4538 18.351 27.149C18.0462 26.8443 17.875 26.431 17.875 26V19.5C17.875 19.069 18.0462 18.6557 18.351 18.351C18.6557 18.0462 19.069 17.875 19.5 17.875Z" fill="#1E3788"/>
</svg>
