<svg width="35" height="35" viewBox="0 0 35 35" fill="none" xmlns="http://www.w3.org/2000/svg">
<path d="M21.875 18.9582H24.0625V23.0707L27.6209 25.1269L26.5271 27.0228L21.875 24.3394V18.9582ZM26.4396 13.6061C25.1271 9.93109 21.6271 7.2915 17.5 7.2915C13.5625 7.2915 10.2084 9.69775 8.75004 13.1248C4.72504 13.1248 1.45837 16.3915 1.45837 20.4165C1.45837 24.4415 4.72504 27.7082 8.75004 27.7082H14.1167C15.7646 31.1498 19.2646 33.5415 23.3334 33.5415C28.9771 33.5415 33.5417 28.9769 33.5417 23.3332C33.5417 18.7832 30.5667 14.9332 26.4396 13.6061ZM8.75004 24.7915C6.32921 24.7915 4.37504 22.8373 4.37504 20.4165C4.37504 17.9957 6.32921 16.0415 8.75004 16.0415C9.28962 16.0415 9.81462 16.1436 10.2959 16.3186C10.5773 14.6113 11.4563 13.0596 12.7758 11.9404C14.0954 10.8212 15.7697 10.2073 17.5 10.2082C19.8771 10.2082 21.9771 11.3603 23.3334 13.1248C17.675 13.1248 13.125 17.704 13.125 23.3332C13.125 23.829 13.1688 24.3103 13.2417 24.7915H8.75004ZM23.3334 30.6248C19.3084 30.6248 16.0417 27.3582 16.0417 23.3332C16.0417 19.3082 19.3084 16.0415 23.3334 16.0415C27.3584 16.0415 30.625 19.3082 30.625 23.3332C30.625 27.3582 27.3584 30.6248 23.3334 30.6248Z" fill="white"/>
</svg>
