<svg width="84" height="84" viewBox="0 0 84 84" fill="none" xmlns="http://www.w3.org/2000/svg">
<path d="M73.5 38.5C73.5 57.925 60.06 76.09 42 80.5C23.94 76.09 10.5 57.925 10.5 38.5V17.5L42 3.5L73.5 17.5V38.5ZM42 73.5C55.125 70 66.5 54.39 66.5 39.27V22.05L42 11.13L17.5 22.05V39.27C17.5 54.39 28.875 70 42 73.5ZM51.8 38.5V33.25C51.8 28.35 46.9 24.5 42 24.5C37.1 24.5 32.2 28.35 32.2 33.25V38.5C30.1 38.5 28 40.6 28 42.7V54.95C28 57.4 30.1 59.5 32.2 59.5H51.45C53.9 59.5 56 57.4 56 55.3V43.05C56 40.6 53.9 38.5 51.8 38.5ZM47.25 38.5H36.75V33.25C36.75 30.45 39.2 28.7 42 28.7C44.8 28.7 47.25 30.45 47.25 33.25V38.5Z" fill="#DC3C3C"/>
</svg>
