<svg width="24" height="24" viewBox="0 0 24 24" fill="none" xmlns="http://www.w3.org/2000/svg">
<path d="M3.54995 12L10.9 19.35C11.15 19.6 11.271 19.8917 11.263 20.225C11.255 20.5583 11.1256 20.85 10.875 21.1C10.6243 21.35 10.3326 21.475 9.99995 21.475C9.66729 21.475 9.37562 21.35 9.12495 21.1L1.42495 13.425C1.22495 13.225 1.07495 13 0.974951 12.75C0.874951 12.5 0.824951 12.25 0.824951 12C0.824951 11.75 0.874951 11.5 0.974951 11.25C1.07495 11 1.22495 10.775 1.42495 10.575L9.12495 2.875C9.37495 2.625 9.67095 2.504 10.013 2.512C10.355 2.52 10.6506 2.64933 10.9 2.9C11.1493 3.15067 11.2743 3.44233 11.275 3.775C11.2756 4.10767 11.1506 4.39933 10.9 4.65L3.54995 12Z" fill="black"/>
</svg>
